solid OpenSCAD_Model
  facet normal -1 0 0
    outer loop
      vertex -9.75 -29.25 0
      vertex -9.75 29.25 2
      vertex -9.75 29.25 0
    endloop
  endfacet
  facet normal -1 -0 0
    outer loop
      vertex -9.75 29.25 2
      vertex -9.75 -29.25 0
      vertex -9.75 -29.25 2
    endloop
  endfacet
  facet normal 0 0 1
    outer loop
      vertex 9.75 29.25 2
      vertex 4.075 -29.25 2
      vertex 9.75 -29.25 2
    endloop
  endfacet
  facet normal 0 0 1
    outer loop
      vertex 9.75 29.25 2
      vertex -4.075 -29.25 2
      vertex 4.075 -29.25 2
    endloop
  endfacet
  facet normal -0 0 1
    outer loop
      vertex -9.75 29.25 2
      vertex -4.075 -29.25 2
      vertex 9.75 29.25 2
    endloop
  endfacet
  facet normal 0 0 1
    outer loop
      vertex -4.075 -29.25 2
      vertex -9.75 29.25 2
      vertex -9.75 -29.25 2
    endloop
  endfacet
  facet normal 1 -0 0
    outer loop
      vertex 9.75 -29.25 2
      vertex 9.75 29.25 0
      vertex 9.75 29.25 2
    endloop
  endfacet
  facet normal 1 0 0
    outer loop
      vertex 9.75 29.25 0
      vertex 9.75 -29.25 2
      vertex 9.75 -29.25 0
    endloop
  endfacet
  facet normal 0 1 -0
    outer loop
      vertex 9.75 29.25 0
      vertex -9.75 29.25 2
      vertex 9.75 29.25 2
    endloop
  endfacet
  facet normal 0 1 0
    outer loop
      vertex -9.75 29.25 2
      vertex 9.75 29.25 0
      vertex -9.75 29.25 0
    endloop
  endfacet
  facet normal 0 0 -1
    outer loop
      vertex 4.075 -31.25 0
      vertex -4.075 -31.25 0
      vertex 4.075 -29.25 0
    endloop
  endfacet
  facet normal 0 0 -1
    outer loop
      vertex 4.075 -29.25 0
      vertex 9.75 29.25 0
      vertex 9.75 -29.25 0
    endloop
  endfacet
  facet normal 0 0 -1
    outer loop
      vertex -4.075 -29.25 0
      vertex 4.075 -29.25 0
      vertex -4.075 -31.25 0
    endloop
  endfacet
  facet normal 0 0 -1
    outer loop
      vertex 4.075 -29.25 0
      vertex -4.075 -29.25 0
      vertex 9.75 29.25 0
    endloop
  endfacet
  facet normal 0 0 -1
    outer loop
      vertex -9.75 29.25 0
      vertex -4.075 -29.25 0
      vertex -9.75 -29.25 0
    endloop
  endfacet
  facet normal 0 0 -1
    outer loop
      vertex -4.075 -29.25 0
      vertex -9.75 29.25 0
      vertex 9.75 29.25 0
    endloop
  endfacet
  facet normal 0 -1 0
    outer loop
      vertex 4.075 -29.25 0
      vertex 9.75 -29.25 2
      vertex 4.075 -29.25 2
    endloop
  endfacet
  facet normal 0 -1 -0
    outer loop
      vertex 9.75 -29.25 2
      vertex 4.075 -29.25 0
      vertex 9.75 -29.25 0
    endloop
  endfacet
  facet normal 0 1 -0
    outer loop
      vertex 4.075 -29.25 2
      vertex -4.075 -29.25 4.8
      vertex 4.075 -29.25 4.8
    endloop
  endfacet
  facet normal 0 1 0
    outer loop
      vertex -4.075 -29.25 4.8
      vertex 4.075 -29.25 2
      vertex -4.075 -29.25 2
    endloop
  endfacet
  facet normal 0 -1 0
    outer loop
      vertex -9.75 -29.25 0
      vertex -4.075 -29.25 2
      vertex -9.75 -29.25 2
    endloop
  endfacet
  facet normal 0 -1 -0
    outer loop
      vertex -4.075 -29.25 2
      vertex -9.75 -29.25 0
      vertex -4.075 -29.25 0
    endloop
  endfacet
  facet normal -1 0 0
    outer loop
      vertex -4.075 -31.25 0
      vertex -4.075 -29.25 2
      vertex -4.075 -29.25 0
    endloop
  endfacet
  facet normal -1 0 0
    outer loop
      vertex -4.075 -31.25 4.8
      vertex -4.075 -29.25 2
      vertex -4.075 -31.25 0
    endloop
  endfacet
  facet normal -1 0 0
    outer loop
      vertex -4.075 -29.25 2
      vertex -4.075 -31.25 4.8
      vertex -4.075 -29.25 4.8
    endloop
  endfacet
  facet normal -0 0 1
    outer loop
      vertex -4.075 -29.25 4.8
      vertex 4.075 -31.25 4.8
      vertex 4.075 -29.25 4.8
    endloop
  endfacet
  facet normal 0 0 1
    outer loop
      vertex 4.075 -31.25 4.8
      vertex -4.075 -29.25 4.8
      vertex -4.075 -31.25 4.8
    endloop
  endfacet
  facet normal 1 -0 0
    outer loop
      vertex 4.075 -31.25 4.8
      vertex 4.075 -29.25 2
      vertex 4.075 -29.25 4.8
    endloop
  endfacet
  facet normal 1 0 0
    outer loop
      vertex 4.075 -31.25 0
      vertex 4.075 -29.25 2
      vertex 4.075 -31.25 4.8
    endloop
  endfacet
  facet normal 1 0 0
    outer loop
      vertex 4.075 -29.25 2
      vertex 4.075 -31.25 0
      vertex 4.075 -29.25 0
    endloop
  endfacet
  facet normal 0 -1 0
    outer loop
      vertex -4.075 -31.25 0
      vertex 4.075 -31.25 4.8
      vertex -4.075 -31.25 4.8
    endloop
  endfacet
  facet normal 0 -1 -0
    outer loop
      vertex 4.075 -31.25 4.8
      vertex -4.075 -31.25 0
      vertex 4.075 -31.25 0
    endloop
  endfacet
endsolid OpenSCAD_Model
